HIERARCHY
ROOT Hips
{
    OFFSET 0.000000 0.000000 0.000000
    CHANNELS 6 Xposition Yposition Zposition Zrotation Xrotation Yrotation
    JOINT Spine
    {
        OFFSET -0.000000 14.517291 0.000000
        CHANNELS 3 Zrotation Xrotation Yrotation
        JOINT Spine1
        {
            OFFSET -0.000000 37.558300 0.000000
            CHANNELS 3 Zrotation Xrotation Yrotation
            JOINT Neck
            {
                OFFSET -0.000000 37.404057 3.400369
                CHANNELS 3 Zrotation Xrotation Yrotation
                JOINT Head
                {
                    OFFSET -0.000000 24.785618 -3.540803
                    CHANNELS 3 Zrotation Xrotation Yrotation
                    End Site
                    {
                        OFFSET -0.000000 35.408028 0.000000
                    }
                }
            }
            JOINT LeftShoulder
            {
                OFFSET 6.992933 33.973492 -0.192664
                CHANNELS 3 Zrotation Xrotation Yrotation
                JOINT LeftArm
                {
                    OFFSET 21.527611 0.000000 0.000000
                    CHANNELS 3 Zrotation Xrotation Yrotation
                    JOINT LeftForeArm
                    {
                        OFFSET 56.353916 0.000000 0.000000
                        CHANNELS 3 Zrotation Xrotation Yrotation
                        JOINT LeftHand
                        {
                            OFFSET 47.774071 0.000000 0.000000
                            CHANNELS 3 Zrotation Xrotation Yrotation
                            End Site
                            {
                                OFFSET 26.556021 0.000000 0.000000
                            }
                        }
                    }
                }
            }
            JOINT RightShoulder
            {
                OFFSET -7.065357 33.973492 -0.192664
                CHANNELS 3 Zrotation Xrotation Yrotation
                JOINT RightArm
                {
                    OFFSET -21.527611 0.000000 0.000000
                    CHANNELS 3 Zrotation Xrotation Yrotation
                    JOINT RightForeArm
                    {
                        OFFSET -56.353916 0.000000 0.000000
                        CHANNELS 3 Zrotation Xrotation Yrotation
                        JOINT RightHand
                        {
                            OFFSET -47.774071 0.000000 0.000000
                            CHANNELS 3 Zrotation Xrotation Yrotation
                            End Site
                            {
                                OFFSET -26.556021 0.000000 0.000000
                            }
                        }
                    }
                }
            }
        }
    }
    JOINT LeftUpLeg
    {
        OFFSET 17.704014 0.000000 0.000000
        CHANNELS 3 Zrotation Xrotation Yrotation
        JOINT LeftLeg
        {
            OFFSET -0.000000 -81.181816 0.000000
            CHANNELS 3 Zrotation Xrotation Yrotation
            JOINT LeftFoot
            {
                OFFSET -0.000000 -62.821102 0.000000
                CHANNELS 3 Zrotation Xrotation Yrotation
                JOINT LeftToeBase
                {
                    OFFSET -0.000000 -11.507608 26.556021
                    CHANNELS 3 Zrotation Xrotation Yrotation
                    End Site
                    {
                        OFFSET -0.000000 0.000000 7.081605
                    }
                }
            }
        }
    }
    JOINT RightUpLeg
    {
        OFFSET -17.704014 0.000000 0.000000
        CHANNELS 3 Zrotation Xrotation Yrotation
        JOINT RightLeg
        {
            OFFSET -0.000000 -81.181816 0.000000
            CHANNELS 3 Zrotation Xrotation Yrotation
            JOINT RightFoot
            {
                OFFSET -0.000000 -62.821102 0.000000
                CHANNELS 3 Zrotation Xrotation Yrotation
                JOINT RightToeBase
                {
                    OFFSET -0.000000 -11.507608 26.556021
                    CHANNELS 3 Zrotation Xrotation Yrotation
                    End Site
                    {
                        OFFSET -0.000000 0.000000 7.081605
                    }
                }
            }
        }
    }
}
MOTION
Frames:    4
Frame Time:    0.008333
22.321350    147.536652    48.467354    4.213054    3.455230    -58.116554    0.069911    -0.957520    0.391732    2.683993    -3.080323    0.201280    20.392658    3.852109    18.764189    -16.342394    7.473440    15.986879    13.077057    0.626080    -15.388927    -3.590231    -7.557904    -19.551991    -2.252934    -2.868231    -87.662628    -6.770277    -3.475352    -25.840384    -6.398660    -4.011534    -5.807374    37.210434    -24.651714    50.198307    11.462781    -41.795723    101.451614    18.002678    -48.120022    31.863058    36.084652    -23.363853    27.375940    -28.363092    40.024464    3.934826    -1.397595    -12.339735    43.855370    0.000000    0.000000    0.000000    -28.366156    -8.704094    -18.690033    3.603198    29.857662    -6.982553    19.608850    -10.687482    5.945798    0.000000    0.000000    0.000000    
22.335722    147.532059    48.442162    4.217711    3.452996    -58.110996    0.085092    -0.978585    0.398273    2.681364    -3.023452    0.201754    20.355331    3.840403    18.761082    -16.333860    7.439758    15.981625    13.045466    0.623234    -15.378604    -3.584324    -7.555779    -19.581648    -2.224195    -2.899435    -87.652527    -6.774130    -3.477541    -25.839699    -6.516974    -3.966902    -5.736942    36.934719    -24.505064    50.164246    12.044241    -40.947311    101.628403    17.936615    -47.897694    31.854952    36.084030    -23.374283    27.385399    -28.354334    40.016884    3.935007    -1.404651    -12.329330    43.843769    0.000000    0.000000    0.000000    -28.372177    -8.720854    -18.675747    3.614662    29.878548    -6.985305    19.608488    -10.706030    5.934756    0.000000    0.000000    0.000000    
22.347971    147.529007    48.421543    4.223536    3.450060    -58.102280    0.088433    -1.004586    0.402006    2.692623    -2.962207    0.201934    20.294563    3.823920    18.747221    -16.293943    7.400266    15.968466    13.017092    0.615631    -15.376589    -3.591968    -7.552901    -19.607220    -2.192329    -2.931068    -87.654228    -6.780920    -3.478105    -25.823820    -6.631955    -3.908003    -5.678390    36.705238    -24.431892    50.165531    12.694926    -39.997196    101.782204    17.880116    -47.653347    31.837835    36.083214    -23.381750    27.384102    -28.364428    39.994411    3.953568    -1.406926    -12.308171    43.835072    0.000000    0.000000    0.000000    -28.380808    -8.734962    -18.674297    3.621324    29.899633    -6.979628    19.603790    -10.727030    5.929810    0.000000    0.000000    0.000000    
22.361994    147.526947    48.401409    4.229107    3.438972    -58.090302    0.092750    -1.024589    0.404150    2.689955    -2.901955    0.201198    20.256645    3.803502    18.738377    -16.272524    7.380815    15.958671    12.978661    0.598794    -15.380547    -3.580982    -7.547162    -19.623821    -2.174493    -2.939122    -87.634697    -6.772545    -3.470052    -25.830528    -6.741945    -3.861338    -5.620011    36.431049    -24.301535    50.127457    13.273324    -39.114750    101.925865    17.813578    -47.419159    31.837763    36.072620    -23.399248    27.521242    -28.250500    40.066341    3.773407    -1.431713    -12.296137    43.840065    0.000000    0.000000    0.000000    -28.398088    -8.743732    -18.670801    3.638155    29.921352    -7.010828    19.611660    -10.744223    5.927434    0.000000    0.000000    0.000000    
